<?xml version="1.0" standalone="no"?>
<!DOCTYPE svg PUBLIC "-//W3C//DTD SVG 20010904//EN"
 "http://www.w3.org/TR/2001/REC-SVG-20010904/DTD/svg10.dtd">
<svg version="1.0" xmlns="http://www.w3.org/2000/svg"
 width="16.000000pt" height="16.000000pt" viewBox="0 0 16.000000 16.000000"
 preserveAspectRatio="xMidYMid meet">
<metadata>
Created by potrace 1.11, written by Peter Selinger 2001-2013
</metadata>
<g transform="translate(0.000000,16.000000) scale(0.004000,-0.004000)"
fill="#000000" stroke="none">
<path d="M1820 3990 c-484 -50 -895 -244 -1231 -579 -291 -291 -484 -659 -554
-1053 -62 -347 -35 -687 80 -1018 152 -436 461 -814 866 -1058 335 -202 779
-307 1157 -274 220 20 340 44 522 107 491 171 912 547 1136 1012 117 244 170
445 196 736 13 147 3 326 -27 495 -124 696 -633 1293 -1304 1526 -276 96 -572
133 -841 106z m401 -345 c388 -51 730 -229 999 -521 94 -101 106 -117 175
-223 188 -291 277 -621 262 -971 -8 -173 -29 -296 -78 -443 -170 -513 -564
-906 -1069 -1067 -189 -60 -284 -74 -505 -74 -214 0 -325 15 -490 65 -492 151
-890 524 -1070 1004 -49 131 -71 221 -90 363 -44 334 9 659 154 952 101 204
232 374 404 525 351 309 832 453 1308 390z"/>
<path d="M1855 3324 c-212 -30 -359 -74 -474 -143 -72 -42 -165 -129 -213
-199 -36 -52 -35 -52 62 -104 36 -19 139 -77 230 -128 91 -51 188 -104 215
-119 28 -15 112 -62 188 -105 l137 -77 133 74 c72 41 152 85 177 99 25 14 128
71 230 128 102 56 213 118 247 136 34 19 65 39 68 44 3 5 -7 29 -23 52 -115
166 -301 273 -562 323 -81 16 -352 28 -415 19z"/>
<path d="M626 2832 c-81 -128 -168 -351 -200 -512 -38 -190 -38 -449 -1 -636
24 -118 82 -287 136 -394 86 -172 78 -234 79 643 0 615 3 777 13 777 6 0 26
-8 42 -18 17 -10 62 -36 100 -57 39 -21 140 -77 225 -125 85 -48 180 -101 210
-117 57 -31 480 -266 560 -311 166 -92 203 -112 210 -112 10 0 35 14 630 345
294 164 560 312 590 328 30 17 69 39 85 49 17 10 36 18 42 18 10 0 13 -166 15
-782 l3 -782 57 110 c198 382 236 822 107 1234 -31 98 -148 349 -174 370 -11
9 -66 -18 -287 -141 -150 -84 -286 -160 -303 -169 -16 -9 -75 -41 -130 -72
-55 -30 -122 -68 -150 -83 -43 -24 -278 -155 -427 -239 -26 -14 -52 -26 -58
-26 -7 0 -50 23 -97 50 -47 28 -87 50 -89 50 -2 0 -55 29 -117 64 -61 35 -137
77 -167 93 -30 17 -238 132 -462 257 -224 124 -410 226 -412 226 -3 0 -17 -17
-30 -38z"/>
<path d="M980 1428 l0 -673 33 -23 c190 -133 297 -191 458 -247 262 -92 568
-113 844 -60 201 40 443 144 620 270 l85 60 0 673 c0 369 -2 672 -4 672 -9 0
-99 -41 -356 -163 -668 -315 -653 -308 -680 -298 -14 5 -117 53 -230 106 -113
53 -232 110 -265 125 -33 16 -157 74 -275 129 -118 56 -218 101 -222 101 -4 0
-8 -303 -8 -672z m444 -460 l-75 -113 91 -3 91 -3 -3 -102 -3 -102 -57 -3 -58
-3 0 56 0 55 -104 0 c-85 0 -105 3 -110 16 -16 41 -3 73 76 191 l83 123 72 0
72 0 -75 -112z m450 98 c47 -19 56 -55 55 -205 -1 -148 -5 -167 -42 -195 -25
-19 -42 -21 -150 -21 l-122 0 -3 57 -3 57 103 3 103 3 3 88 c3 106 -4 119 -62
115 -36 -3 -41 -6 -44 -30 -2 -18 2 -28 10 -29 7 -1 27 -2 43 -3 27 -1 30 -4
33 -40 4 -44 -6 -54 -49 -51 -16 1 -45 2 -64 3 -23 1 -45 11 -60 27 -22 21
-25 33 -25 95 0 81 9 103 48 124 36 20 181 21 226 2z m404 3 c47 -16 57 -53
57 -210 0 -202 -8 -212 -192 -217 l-123 -4 0 61 0 61 100 0 101 0 -3 103 -3
102 -44 0 c-31 0 -47 -5 -55 -17 -15 -25 5 -42 49 -40 l36 1 -3 -47 -3 -47
-59 2 c-83 2 -104 9 -121 43 -20 38 -19 123 1 165 9 19 28 38 42 44 37 13 182
13 220 0z m413 -4 c16 -9 34 -27 39 -41 6 -14 10 -90 10 -168 0 -129 -2 -146
-20 -169 -28 -35 -76 -47 -192 -47 l-98 0 0 60 0 59 98 3 97 3 3 94 c2 69 -1
97 -10 103 -15 9 -60 11 -82 2 -22 -9 -21 -54 2 -55 9 -1 24 -3 32 -4 8 -1 21
-3 28 -4 9 -1 12 -14 10 -43 l-3 -43 -45 1 c-25 1 -58 2 -73 3 -15 0 -39 12
-52 26 -22 21 -25 33 -25 92 1 118 29 142 163 143 60 0 97 -5 118 -15z"/>
</g>
</svg>
